<svg width="33" height="25" viewBox="0 0 33 25" fill="none" xmlns="http://www.w3.org/2000/svg">
<g clip-path="url(#clip0_142_1142)">
<path d="M7.77275 24.4433V12.0795L3.93837 8.57163L0.5 6.625V22.2614C0.5 23.4686 1.47812 24.4433 2.68187 24.4433H7.77275Z" fill="#464343" fill-opacity="0.75"/>
<path d="M25.2273 24.4443H30.3182C31.5255 24.4443 32.5 23.4661 32.5 22.2625V6.62622L28.6055 8.85585L25.2273 12.0806V24.4443Z" fill="#464343" fill-opacity="0.75"/>
<path d="M7.77273 12.0795L7.25098 7.24862L7.77273 2.625L16.5 9.1705L25.2272 2.625L25.8109 6.999L25.2272 12.0795L16.5 18.625L7.77273 12.0795Z" fill="#464343" fill-opacity="0.75"/>
<path d="M25.2273 2.62546V12.08L32.5 6.62546V3.71634C32.5 1.01821 29.42 -0.519914 27.2638 1.09821L25.2273 2.62546Z" fill="#464343" fill-opacity="0.75"/>
<path d="M0.5 6.62552L3.84488 9.13427L7.77275 12.08V2.62552L5.73625 1.09827C3.57625 -0.519981 0.5 1.01827 0.5 3.71627V6.62552Z" fill="#464343" fill-opacity="0.75"/>
</g>
<defs>
<clipPath id="clip0_142_1142">
<rect width="32" height="24.125" fill="white" transform="translate(0.5 0.4375)"/>
</clipPath>
</defs>
</svg>
