<svg width="32" height="32" viewBox="0 0 32 32" fill="none" xmlns="http://www.w3.org/2000/svg">
<g clip-path="url(#clip0_142_1163)">
<path d="M23.4667 7.46665H25.6M9.59998 1.06665H22.4C24.6632 1.06665 26.8337 1.9657 28.434 3.56601C30.0343 5.16632 30.9333 7.3368 30.9333 9.59998V22.4C30.9333 24.6632 30.0343 26.8337 28.434 28.434C26.8337 30.0343 24.6632 30.9333 22.4 30.9333H9.59998C7.3368 30.9333 5.16632 30.0343 3.56601 28.434C1.9657 26.8337 1.06665 24.6632 1.06665 22.4V9.59998C1.06665 7.3368 1.9657 5.16632 3.56601 3.56601C5.16632 1.9657 7.3368 1.06665 9.59998 1.06665ZM16 22.4C14.3026 22.4 12.6747 21.7257 11.4745 20.5255C10.2743 19.3252 9.59998 17.6974 9.59998 16C9.59998 14.3026 10.2743 12.6747 11.4745 11.4745C12.6747 10.2743 14.3026 9.59998 16 9.59998C17.6974 9.59998 19.3252 10.2743 20.5255 11.4745C21.7257 12.6747 22.4 14.3026 22.4 16C22.4 17.6974 21.7257 19.3252 20.5255 20.5255C19.3252 21.7257 17.6974 22.4 16 22.4Z" stroke="#464343" stroke-opacity="0.75" stroke-width="2.13333"/>
</g>
<defs>
<clipPath id="clip0_142_1163">
<rect width="32" height="32" fill="white"/>
</clipPath>
</defs>
</svg>
