<svg width="33" height="32" viewBox="0 0 33 32" fill="none" xmlns="http://www.w3.org/2000/svg">
<path d="M0.5 2.292C0.5 1.026 1.552 0 2.85 0H30.15C31.448 0 32.5 1.026 32.5 2.292V29.708C32.5 30.974 31.448 32 30.15 32H2.85C1.552 32 0.5 30.974 0.5 29.708V2.292ZM10.386 26.788V12.338H5.584V26.788H10.386ZM7.986 10.364C9.66 10.364 10.702 9.256 10.702 7.868C10.672 6.45 9.662 5.372 8.018 5.372C6.374 5.372 5.3 6.452 5.3 7.868C5.3 9.256 6.342 10.364 7.954 10.364H7.986ZM17.802 26.788V18.718C17.802 18.286 17.834 17.854 17.962 17.546C18.308 16.684 19.098 15.79 20.426 15.79C22.164 15.79 22.858 17.114 22.858 19.058V26.788H27.66V18.5C27.66 14.06 25.292 11.996 22.132 11.996C19.584 11.996 18.442 13.396 17.802 14.382V14.432H17.77L17.802 14.382V12.338H13.002C13.062 13.694 13.002 26.788 13.002 26.788H17.802Z" fill="#464343" fill-opacity="0.75"/>
</svg>
