<svg width="33" height="32" viewBox="0 0 33 32" fill="none" xmlns="http://www.w3.org/2000/svg">
<g clip-path="url(#clip0_142_1150)">
<path d="M24.5 15.2615C24.7462 15.6308 24.9923 16 25.1154 16.6154H21.1769C21.1769 16.4923 21.1769 16.2462 21.3 16C21.4231 15.7538 21.4231 15.6308 21.6692 15.3846C21.7923 15.1385 22.0385 15.0154 22.2846 14.8923C22.5308 14.7692 22.9 14.6462 23.2692 14.6462C23.7615 14.7692 24.2538 14.8923 24.5 15.2615ZM13.1769 14.4C13.4231 14.1538 13.6692 13.7846 13.6692 13.2923C13.6692 13.0462 13.6692 12.8 13.5462 12.5538C13.4231 12.4308 13.3 12.1846 13.1769 12.1846C13.0538 12.0615 12.8077 12.0615 12.5615 11.9385H9.36154V14.7692H12.0692C12.4385 14.7692 12.8077 14.6462 13.1769 14.4ZM12.1923 16.4923H9.36154V19.8154H12.1923C12.4385 19.8154 12.6846 19.8154 12.9308 19.6923C13.1769 19.6923 13.4231 19.5692 13.5462 19.4462C13.6692 19.3231 13.9154 19.2 14.0385 18.9538C14.1615 18.7077 14.1615 18.4615 14.1615 18.2154C14.1615 17.6 14.0385 17.1077 13.6692 16.8615C13.3 16.6154 12.8077 16.4923 12.1923 16.4923ZM32.5 6.03077V25.9692C32.5 29.2923 29.7923 32 26.4692 32H6.53077C3.20769 32 0.5 29.2923 0.5 25.9692V6.03077C0.5 2.70769 3.20769 0 6.53077 0H26.4692C29.7923 0 32.5 2.70769 32.5 6.03077ZM20.6846 11.8154H25.6077V10.5846H20.6846V11.8154ZM16.7462 18.4615C16.7462 17.7231 16.6231 17.1077 16.2538 16.4923C15.8846 16 15.3923 15.6308 14.6538 15.3846C15.1462 15.1385 15.6385 14.7692 15.8846 14.4C16.1308 14.0308 16.2538 13.5385 16.2538 12.9231C16.2538 12.3077 16.1308 11.9385 16.0077 11.4462C15.7615 11.0769 15.5154 10.7077 15.2692 10.5846C14.9 10.3385 14.5308 10.2154 14.0385 10.0923C13.4231 9.84615 12.9308 9.84615 12.3154 9.84615H6.65385V21.9077H12.5615C13.0538 21.9077 13.6692 21.7846 14.1615 21.6615C14.6538 21.5385 15.1462 21.2923 15.5154 21.0462C15.8846 20.8 16.2538 20.4308 16.5 19.9385C16.6231 19.5692 16.7462 19.0769 16.7462 18.4615ZM21.1769 18.0923H27.4538C27.4538 17.3538 27.4538 16.7385 27.3308 16.1231C27.2077 15.5077 26.9615 14.8923 26.5923 14.5231C26.2231 14.0308 25.7308 13.6615 25.2385 13.4154C24.6231 13.1692 24.0077 12.9231 23.2692 12.9231C22.6538 12.9231 22.0385 13.0462 21.4231 13.2923C20.9308 13.5385 20.4385 13.9077 19.9462 14.2769C19.5769 14.6462 19.2077 15.1385 19.0846 15.7538C18.8385 16.3692 18.7154 16.9846 18.7154 17.6C18.7154 18.2154 18.8385 18.9538 19.0846 19.4462C19.3308 20.0615 19.5769 20.5538 19.9462 20.9231C20.3154 21.2923 20.8077 21.6615 21.3 21.9077C21.9154 22.1538 22.5308 22.2769 23.1462 22.2769C24.1308 22.2769 24.9923 22.0308 25.7308 21.5385C26.4692 21.0462 26.9615 20.3077 27.3308 19.3231H25.2385C25.1154 19.5692 24.9923 19.8154 24.6231 20.0615C24.2538 20.3077 23.8846 20.4308 23.3923 20.4308C22.7769 20.4308 22.1615 20.3077 21.7923 19.9385C21.4231 19.4462 21.1769 18.8308 21.1769 18.0923Z" fill="#464343" fill-opacity="0.75"/>
</g>
<defs>
<clipPath id="clip0_142_1150">
<rect width="32" height="32" fill="white" transform="translate(0.5)"/>
</clipPath>
</defs>
</svg>
